<svg xmlns="http://www.w3.org/2000/svg" viewBox="0 0 328.39 136.25"><defs><style>.cls-1,.cls-2{fill:#231f20;}.cls-2{stroke:#000;stroke-miterlimit:10;}</style></defs><g id="Capa_2" data-name="Capa 2"><g id="Layer_1" data-name="Layer 1"><path class="cls-1" d="M.5,41a10.13,10.13,0,0,1,4.33-8.24,16.67,16.67,0,0,1,10.56-3.38H27.45a16.76,16.76,0,0,1,10.46,3.38q4.43,3.39,4.43,8.24v65q0,4.86-4.43,8.24a16.7,16.7,0,0,1-10.46,3.38H15.39A16.61,16.61,0,0,1,4.83,114.2,10.12,10.12,0,0,1,.5,106Zm18.28,64.27c0,1.27.82,2,2.45,2.21a2.61,2.61,0,0,0,2-.52,2,2,0,0,0,.85-1.54V41.55a2.15,2.15,0,0,0-.85-1.62,2.42,2.42,0,0,0-2-.59c-1.63.2-2.45.93-2.45,2.21Z" transform="translate(0 -29.34)"/><path class="cls-1" d="M46.86,106V29.34H65.14v76c0,1.17.82,1.86,2.45,2.06a2.61,2.61,0,0,0,2-.52,2,2,0,0,0,.85-1.54V85.67L88.51,94.2,88.7,106q0,4.71-4.43,8.17a16.54,16.54,0,0,1-10.46,3.45H61.75a16.61,16.61,0,0,1-10.56-3.38A10.12,10.12,0,0,1,46.86,106Z" transform="translate(0 -29.34)"/><path class="cls-1" d="M98.31,29.34a16.78,16.78,0,0,1,10.46,3.38q4.42,3.39,4.43,8.24v76.62h-3.4a16.6,16.6,0,0,1-10.55-3.38A10.13,10.13,0,0,1,94.91,106V29.34Z" transform="translate(0 -29.34)"/><path class="cls-1" d="M119.41,117.58V39.64a9,9,0,0,1,3.87-7.28,14.68,14.68,0,0,1,9.32-3,21.88,21.88,0,0,1,9.24,1.91L152,36l10.17-4.71a21.91,21.91,0,0,1,9.24-1.91,14.73,14.73,0,0,1,9.33,3,9,9,0,0,1,3.86,7.28v77.94h-3.2a16.61,16.61,0,0,1-10.56-3.38,10.12,10.12,0,0,1-4.33-8.24V41.55c0,2.55,0,4.07-.1,4.56s-.18.51-.37.07-.51-1.08-.94-1.91a2,2,0,0,0-1.8-1.25,4.7,4.7,0,0,0-2.07.73v73.83H143V43.75a27.36,27.36,0,0,1-2.64-1.17c-.63-.3-1.22-.57-1.79-.81s-.85-.32-.85-.22V106q0,4.86-4.43,8.24a16.69,16.69,0,0,1-10.45,3.38Z" transform="translate(0 -29.34)"/><path class="cls-1" d="M193.29,106V29.34h27a16.17,16.17,0,0,1,10.27,3.31,11.1,11.1,0,0,1,4.62,8v32.5c0,2.16-1.2,3.72-3.58,4.7l-20,9.42v30.29h-3.39a16.61,16.61,0,0,1-10.56-3.38A10.12,10.12,0,0,1,193.29,106Zm18.28-30.59,5.28-2.5V41.55a2.15,2.15,0,0,0-.85-1.62,2.42,2.42,0,0,0-2-.59c-1.64.2-2.45.93-2.45,2.21Z" transform="translate(0 -29.34)"/><path class="cls-1" d="M239.65,107.29V29.34h18.28v76c0,1.37.88,2.06,2.64,2.06s2.63-.69,2.63-2.06v-76h3.4a16.78,16.78,0,0,1,10.46,3.38q4.43,3.39,4.43,8.24v65l-.19.3a10.43,10.43,0,0,1-4.43,8,16.17,16.17,0,0,1-10.27,3.31H252.84a14.68,14.68,0,0,1-9.33-3A9,9,0,0,1,239.65,107.29Z" transform="translate(0 -29.34)"/><path class="cls-1" d="M286,106V85.67l18.28,8.53v11.18c0,1.08.63,1.76,1.88,2.06h1.32c1.38-.3,2.07-1,2.07-2.06V87.29L286,76.26V41a10.13,10.13,0,0,1,4.33-8.24,16.67,16.67,0,0,1,10.56-3.38H313a16.78,16.78,0,0,1,10.46,3.38q4.43,3.39,4.43,8.24V74.34L309.56,66V41.55a2.05,2.05,0,0,0-.84-1.69,2.53,2.53,0,0,0-2-.52c-1.64.2-2.45.93-2.45,2.21V72.87l23.56,10.89V106q0,4.86-4.43,8.24A16.72,16.72,0,0,1,313,117.58H300.9q-6.6,0-10.75-3.31A10.2,10.2,0,0,1,286,106Z" transform="translate(0 -29.34)"/><path class="cls-2" d="M.5,164.84V134.93q0-3.42,1.81-4.94a6.58,6.58,0,0,1,4.38-1.52h.42l16.2.7v2.14H7.11a3.55,3.55,0,0,0-2.83.92,4,4,0,0,0-.79,2.7v10.39l17.72.39v2.19l-17.72.4v16.54Z" transform="translate(0 -29.34)"/><path class="cls-2" d="M33.54,134.09v-2.78a.93.93,0,0,1,1.05-1.05h1.94q1,0,1,1.05v2.78a.88.88,0,0,1-1,1H34.59a.89.89,0,0,1-.84-.35A1.24,1.24,0,0,1,33.54,134.09ZM34,164.84V138.46h3v26.38Z" transform="translate(0 -29.34)"/><path class="cls-2" d="M46.39,141.24v-2.08l4.93-.75.78-7.35h2.2v7.35h8.5v2.83H54.3v14.21q0,3.93,1.21,5.22A4.35,4.35,0,0,0,57.92,162q4,.84,4.41.84v2H58.08q-6.76,0-6.76-9.39V141.24Z" transform="translate(0 -29.34)"/><path class="cls-2" d="M79.16,139.78a22.53,22.53,0,0,1,3.33-1.2,16,16,0,0,1,4.36-.57,8.23,8.23,0,0,1,4.32,1.2,7.88,7.88,0,0,1,3.94,7.25v18.38h-3V146.46a5.49,5.49,0,0,0-1.55-4.1,5.29,5.29,0,0,0-3.85-1.51,20.12,20.12,0,0,0-4.1.37,18.91,18.91,0,0,0-3.09.89c-.87.35-2.1.89-3.67,1.62v21.11h-3V138.46h2l1,3.08C77.19,140.78,78.29,140.19,79.16,139.78Z" transform="translate(0 -29.34)"/><path class="cls-2" d="M108.85,163.77A7.09,7.09,0,0,1,106,159.6a25.75,25.75,0,0,1-.81-6.93,53.18,53.18,0,0,1,.26-6.19,12.69,12.69,0,0,1,.92-3.6,8.17,8.17,0,0,1,1.49-2.38,5.47,5.47,0,0,1,2.26-1.39,20.56,20.56,0,0,1,6.71-.85q5.09,0,6.92,1a5.41,5.41,0,0,1,2.73,2.73,11.71,11.71,0,0,1,1,4.89,7.65,7.65,0,0,1-.79,3.95c-1,1.62-3.18,2.44-6.4,2.44H108.22q0,6.94,2.67,8.34a7.15,7.15,0,0,0,3.51.7,98.64,98.64,0,0,0,12.59-.65v2.09a48.35,48.35,0,0,1-12.32,1.39A10.53,10.53,0,0,1,108.85,163.77Zm-.63-13.34h12.11a6.28,6.28,0,0,0,3.12-.62,2.7,2.7,0,0,0,1.08-2.56,12.89,12.89,0,0,0-.34-3.2,3.3,3.3,0,0,0-1.34-1.94,5.2,5.2,0,0,0-2.26-.84,25,25,0,0,0-3.38-.18c-1.41,0-2.48,0-3.2.08a10.43,10.43,0,0,0-2.17.39,3.83,3.83,0,0,0-1.68.92,6.4,6.4,0,0,0-1.1,1.64C108.49,145.32,108.22,147.42,108.22,150.43Z" transform="translate(0 -29.34)"/><path class="cls-2" d="M137,147v-2.28a6.5,6.5,0,0,1,1.65-4.82q1.65-1.64,5.58-1.64,1.95,0,6.45.25c3,.17,5.25.31,6.72.45V141H144.24c-1.75,0-2.89.29-3.43.87a4,4,0,0,0-.82,2.81V147c0,1.59.39,2.57,1.16,2.94a9,9,0,0,0,3.09.39H152a7.09,7.09,0,0,1,5,1.67,5.8,5.8,0,0,1,1.81,4.49v2.44c0,2.61-.73,4.34-2.2,5.16a8.15,8.15,0,0,1-4.12,1.05q-2.28,0-7.44-.3c-3.45-.2-5.75-.36-6.9-.5v-2H152a4.08,4.08,0,0,0,2.51-.5,3.47,3.47,0,0,0,1.31-2.88v-2.44q0-3.33-3.82-3.33h-7.77q-3.93,0-5.58-1.24T137,147Z" transform="translate(0 -29.34)"/><path class="cls-2" d="M167.79,147v-2.28a6.5,6.5,0,0,1,1.65-4.82q1.65-1.64,5.59-1.64,1.93,0,6.45.25c3,.17,5.24.31,6.71.45V141H175c-1.75,0-2.9.29-3.44.87a4,4,0,0,0-.81,2.81V147c0,1.59.38,2.57,1.15,2.94a9.13,9.13,0,0,0,3.1.39h7.76a7.13,7.13,0,0,1,5,1.67,5.83,5.83,0,0,1,1.81,4.49v2.44c0,2.61-.74,4.34-2.21,5.16a8.11,8.11,0,0,1-4.11,1.05c-1.52,0-4-.1-7.45-.3s-5.74-.36-6.9-.5v-2h13.85a4.09,4.09,0,0,0,2.52-.5,3.5,3.5,0,0,0,1.31-2.88v-2.44q0-3.33-3.83-3.33H175q-3.94,0-5.59-1.24T167.79,147Z" transform="translate(0 -29.34)"/><path class="cls-2" d="M219,154.7a34.92,34.92,0,0,1-.45-3.92c-.07-1.26-.1-2.84-.1-4.74s.07-3.69.23-5.34a24.89,24.89,0,0,1,1-5,12,12,0,0,1,2.05-4.08,9.25,9.25,0,0,1,3.48-2.58,11.45,11.45,0,0,1,4.75-1c1.69,0,4,.14,6.76.42s5.13.59,7,.92v2.23l-1-.07-2.36-.17c-1-.07-2-.15-3.06-.25q-4-.25-6.54-.25a10.56,10.56,0,0,0-4.11.67,7,7,0,0,0-2.6,1.86,8,8,0,0,0-1.55,3.18q-1.05,3.48-1,11.06t2,11.1q2,3.53,7.34,3.53a21.06,21.06,0,0,0,4.46-.6c1.78-.4,3.28-.8,4.51-1.19l1.84-.6V148.39h-9.66v-1.88a37,37,0,0,1,9.08-1c1.12,0,2.3.05,3.57.15v19.18h-2.21l-.68-2.53a23.88,23.88,0,0,1-5.8,2.11,24.92,24.92,0,0,1-5.21.67h-1.21a11.85,11.85,0,0,1-2.91-.47,10.58,10.58,0,0,1-3-1.32,7.88,7.88,0,0,1-2.21-2.21,12.58,12.58,0,0,1-1.44-2.86A20.52,20.52,0,0,1,219,154.7Z" transform="translate(0 -29.34)"/><path class="cls-2" d="M270.37,164.84h-3V151.92L255,128.47h3.3l10.6,20,11.69-20h3.25l-13.42,23.45Z" transform="translate(0 -29.34)"/><path class="cls-2" d="M292.13,164.84l3.15-36.37h4.14L310,160.12l10.28-31.65h4.2l3.4,36.37h-3l-3-31.5-10.28,31.5h-3.1l-10.59-31.5-2.78,31.5Z" transform="translate(0 -29.34)"/></g></g></svg>