<svg xmlns="http://www.w3.org/2000/svg" viewBox="0 0 327.35 144.44"><defs><style>.cls-1{fill:#231f20;}.cls-2{fill:#fff;stroke:#fff;stroke-miterlimit:10;}</style></defs><g id="Capa_2" data-name="Capa 2"><g id="Layer_1" data-name="Layer 1"><path class="cls-1" d="M0,41a10.13,10.13,0,0,1,4.33-8.24,16.67,16.67,0,0,1,10.56-3.38H27a16.76,16.76,0,0,1,10.46,3.38q4.43,3.39,4.43,8.24v65q0,4.86-4.43,8.24A16.7,16.7,0,0,1,27,117.58H14.89A16.61,16.61,0,0,1,4.33,114.2,10.12,10.12,0,0,1,0,106Zm18.28,64.27c0,1.27.82,2,2.45,2.21a2.61,2.61,0,0,0,2-.52,2,2,0,0,0,.85-1.54V41.55a2.15,2.15,0,0,0-.85-1.62,2.42,2.42,0,0,0-2-.59c-1.63.2-2.45.93-2.45,2.21Z" transform="translate(0 -29.34)"/><path class="cls-1" d="M46.36,106V29.34H64.64v76c0,1.17.82,1.86,2.45,2.06a2.61,2.61,0,0,0,2-.52,2,2,0,0,0,.85-1.54V85.67L88,94.2,88.2,106q0,4.71-4.43,8.17a16.54,16.54,0,0,1-10.46,3.45H61.25a16.61,16.61,0,0,1-10.56-3.38A10.12,10.12,0,0,1,46.36,106Z" transform="translate(0 -29.34)"/><path class="cls-1" d="M97.81,29.34a16.78,16.78,0,0,1,10.46,3.38q4.42,3.39,4.43,8.24v76.62h-3.4a16.6,16.6,0,0,1-10.55-3.38A10.13,10.13,0,0,1,94.41,106V29.34Z" transform="translate(0 -29.34)"/><path class="cls-1" d="M118.91,117.58V39.64a9,9,0,0,1,3.87-7.28,14.68,14.68,0,0,1,9.32-3,21.88,21.88,0,0,1,9.24,1.91L151.52,36l10.17-4.71a21.91,21.91,0,0,1,9.24-1.91,14.73,14.73,0,0,1,9.33,3,9,9,0,0,1,3.86,7.28v77.94h-3.2a16.61,16.61,0,0,1-10.56-3.38A10.12,10.12,0,0,1,166,106V41.55c0,2.55,0,4.07-.1,4.56s-.18.51-.37.07-.51-1.08-.94-1.91a2,2,0,0,0-1.8-1.25,4.7,4.7,0,0,0-2.07.73v73.83H142.47V43.75a27.36,27.36,0,0,1-2.64-1.17c-.63-.3-1.22-.57-1.79-.81s-.85-.32-.85-.22V106q0,4.86-4.43,8.24a16.69,16.69,0,0,1-10.45,3.38Z" transform="translate(0 -29.34)"/><path class="cls-1" d="M192.79,106V29.34h27A16.17,16.17,0,0,1,230,32.65a11.1,11.1,0,0,1,4.62,8v32.5c0,2.16-1.2,3.72-3.58,4.7l-20,9.42v30.29h-3.39a16.61,16.61,0,0,1-10.56-3.38A10.12,10.12,0,0,1,192.79,106Zm18.28-30.59,5.28-2.5V41.55a2.15,2.15,0,0,0-.85-1.62,2.42,2.42,0,0,0-2-.59c-1.64.2-2.45.93-2.45,2.21Z" transform="translate(0 -29.34)"/><path class="cls-1" d="M239.15,107.29V29.34h18.28v76c0,1.37.88,2.06,2.64,2.06s2.63-.69,2.63-2.06v-76h3.4a16.78,16.78,0,0,1,10.46,3.38Q281,36.11,281,41v65l-.19.3a10.43,10.43,0,0,1-4.43,8,16.17,16.17,0,0,1-10.27,3.31H252.34a14.68,14.68,0,0,1-9.33-3A9,9,0,0,1,239.15,107.29Z" transform="translate(0 -29.34)"/><path class="cls-1" d="M285.51,106V85.67l18.28,8.53v11.18c0,1.08.63,1.76,1.88,2.06H307c1.38-.3,2.07-1,2.07-2.06V87.29l-23.55-11V41a10.13,10.13,0,0,1,4.33-8.24,16.67,16.67,0,0,1,10.56-3.38h12.06a16.78,16.78,0,0,1,10.46,3.38q4.43,3.39,4.43,8.24V74.34L309.06,66V41.55a2.05,2.05,0,0,0-.84-1.69,2.53,2.53,0,0,0-2-.52c-1.64.2-2.45.93-2.45,2.21V72.87l23.56,10.89V106q0,4.86-4.43,8.24a16.72,16.72,0,0,1-10.46,3.38H300.4q-6.6,0-10.75-3.31A10.2,10.2,0,0,1,285.51,106Z" transform="translate(0 -29.34)"/><path class="cls-2" d="M19.32,173.07V146.69c0-2,.53-3.47,1.6-4.36A5.81,5.81,0,0,1,24.78,141h.37l14.29.62v1.88H25.15a3.19,3.19,0,0,0-2.5.81,3.61,3.61,0,0,0-.69,2.39v9.16l15.63.35v1.93L22,158.48v14.59Z" transform="translate(0 -29.34)"/><path class="cls-2" d="M48.46,146v-2.46a.82.82,0,0,1,.92-.92H51.1c.58,0,.87.31.87.92V146a.77.77,0,0,1-.87.87H49.38a.8.8,0,0,1-.74-.31A1.11,1.11,0,0,1,48.46,146Zm.37,27.12V149.8h2.64v23.27Z" transform="translate(0 -29.34)"/><path class="cls-2" d="M59.79,152.25v-1.84l4.35-.65.69-6.49h1.94v6.49h7.5v2.49h-7.5v12.54c0,2.3.36,3.84,1.07,4.6A3.85,3.85,0,0,0,70,170.57c2.37.5,3.67.74,3.88.74v1.76H70.1q-6,0-6-8.28V152.25Z" transform="translate(0 -29.34)"/><path class="cls-2" d="M88.7,151a20.15,20.15,0,0,1,2.94-1.05,14.21,14.21,0,0,1,3.84-.5,7.29,7.29,0,0,1,3.81,1.05,7,7,0,0,1,3.47,6.39v16.22h-2.64V156.85a4.83,4.83,0,0,0-1.36-3.61,4.67,4.67,0,0,0-3.4-1.34,17.7,17.7,0,0,0-3.61.33A16.35,16.35,0,0,0,89,153c-.77.31-1.85.78-3.23,1.42v18.63H83.15V149.8H85l.84,2.72Q87.54,151.51,88.7,151Z" transform="translate(0 -29.34)"/><path class="cls-2" d="M114.88,172.12a6.21,6.21,0,0,1-2.48-3.68,22.49,22.49,0,0,1-.71-6.11,46.47,46.47,0,0,1,.23-5.45,11.18,11.18,0,0,1,.81-3.18,7.21,7.21,0,0,1,1.31-2.1,4.89,4.89,0,0,1,2-1.23,18.27,18.27,0,0,1,5.92-.74c3,0,5,.27,6.11.83a4.77,4.77,0,0,1,2.4,2.41,10.19,10.19,0,0,1,.88,4.31,6.75,6.75,0,0,1-.69,3.49c-.92,1.43-2.81,2.14-5.64,2.14H114.32c0,4.09.79,6.55,2.36,7.36a6.28,6.28,0,0,0,3.1.62,87,87,0,0,0,11.1-.57v1.84A42.3,42.3,0,0,1,120,173.28,9.28,9.28,0,0,1,114.88,172.12Zm-.56-11.76H125a5.52,5.52,0,0,0,2.75-.55,2.39,2.39,0,0,0,1-2.25,11.19,11.19,0,0,0-.3-2.83,2.91,2.91,0,0,0-1.18-1.71,4.7,4.7,0,0,0-2-.74,21.48,21.48,0,0,0-3-.16c-1.24,0-2.19,0-2.82.07a8.84,8.84,0,0,0-1.92.35,3.37,3.37,0,0,0-1.48.81,5.78,5.78,0,0,0-1,1.45A14.53,14.53,0,0,0,114.32,160.36Z" transform="translate(0 -29.34)"/><path class="cls-2" d="M139.71,157.29v-2a5.73,5.73,0,0,1,1.46-4.25q1.46-1.46,4.93-1.45c1.14,0,3,.08,5.69.22s4.62.28,5.92.39V152H146.1c-1.55,0-2.56.25-3,.76a3.55,3.55,0,0,0-.72,2.48v2c0,1.4.34,2.27,1,2.59a7.92,7.92,0,0,0,2.73.35h6.84a6.29,6.29,0,0,1,4.42,1.47,5.12,5.12,0,0,1,1.6,4v2.15c0,2.31-.65,3.82-2,4.56a7.25,7.25,0,0,1-3.63.91c-1.34,0-3.53-.08-6.57-.26s-5.06-.32-6.08-.44v-1.79h12.21a3.62,3.62,0,0,0,2.22-.44,3.07,3.07,0,0,0,1.16-2.54v-2.15c0-2-1.13-2.93-3.38-2.93H146.1q-3.48,0-4.93-1.1C140.2,160.9,139.71,159.45,139.71,157.29Z" transform="translate(0 -29.34)"/><path class="cls-2" d="M166.86,157.29v-2a5.73,5.73,0,0,1,1.46-4.25q1.45-1.46,4.93-1.45c1.14,0,3,.08,5.69.22s4.62.28,5.91.39V152h-11.6c-1.55,0-2.56.25-3,.76a3.55,3.55,0,0,0-.72,2.48v2c0,1.4.34,2.27,1,2.59a7.92,7.92,0,0,0,2.73.35h6.84a6.29,6.29,0,0,1,4.42,1.47,5.12,5.12,0,0,1,1.59,4v2.15c0,2.31-.65,3.82-1.94,4.56a7.25,7.25,0,0,1-3.63.91c-1.34,0-3.53-.08-6.57-.26s-5.06-.32-6.08-.44v-1.79h12.21a3.62,3.62,0,0,0,2.22-.44,3.07,3.07,0,0,0,1.16-2.54v-2.15c0-2-1.13-2.93-3.38-2.93h-6.84q-3.48,0-4.93-1.1C167.35,160.9,166.86,159.45,166.86,157.29Z" transform="translate(0 -29.34)"/><path class="cls-2" d="M212,164.13a31.33,31.33,0,0,1-.39-3.46c-.06-1.11-.1-2.51-.1-4.19s.07-3.25.21-4.71a21.94,21.94,0,0,1,.88-4.38,10.51,10.51,0,0,1,1.81-3.59,8.08,8.08,0,0,1,3.07-2.28,10.15,10.15,0,0,1,4.19-.88q2.23,0,6,.38c2.49.24,4.53.52,6.13.81v2l-.85-.07-2.08-.15c-.85-.06-1.76-.13-2.71-.22-2.34-.15-4.26-.22-5.76-.22a9.49,9.49,0,0,0-3.63.59,6.13,6.13,0,0,0-2.29,1.65,6.85,6.85,0,0,0-1.36,2.8,36.7,36.7,0,0,0-.93,9.75c0,4.45.59,7.72,1.76,9.79s3.36,3.11,6.48,3.11a18.79,18.79,0,0,0,3.93-.52c1.57-.36,2.89-.71,4-1.06l1.62-.52V158.56h-8.51V156.9a32.66,32.66,0,0,1,8-.88c1,0,2,0,3.15.13v16.92h-1.94l-.61-2.24a20.48,20.48,0,0,1-5.11,1.86,21.19,21.19,0,0,1-4.6.59h-1.06a10.11,10.11,0,0,1-2.57-.41,9.12,9.12,0,0,1-2.68-1.16,6.8,6.8,0,0,1-1.94-2,11.08,11.08,0,0,1-1.28-2.52A18.64,18.64,0,0,1,212,164.13Z" transform="translate(0 -29.34)"/><path class="cls-2" d="M257.33,173.07h-2.64v-11.4l-11-20.68h2.91L256,158.65,266.3,141h2.87l-11.84,20.68Z" transform="translate(0 -29.34)"/><path class="cls-2" d="M276.52,173.07,279.3,141H283l9.3,27.91L301.31,141H305l3,32.08h-2.64l-2.63-27.78-9.07,27.78H291l-9.35-27.78-2.45,27.78Z" transform="translate(0 -29.34)"/></g></g></svg>