<svg xmlns="http://www.w3.org/2000/svg" viewBox="0 0 327.35 250.97"><defs><style>.cls-1{fill:#fff;}</style></defs><g id="Capa_2" data-name="Capa 2"><g id="Layer_1" data-name="Layer 1"><path class="cls-1" d="M0,126.84a10.12,10.12,0,0,1,4.33-8.23,16.62,16.62,0,0,1,10.56-3.39H27a16.71,16.71,0,0,1,10.46,3.39q4.43,3.38,4.43,8.23v65q0,4.85-4.43,8.23A16.71,16.71,0,0,1,27,203.47H14.89a16.62,16.62,0,0,1-10.56-3.39A10.12,10.12,0,0,1,0,191.85Zm18.28,64.27c0,1.28.82,2,2.45,2.21a2.57,2.57,0,0,0,2-.52,1.93,1.93,0,0,0,.85-1.54V127.43a2.15,2.15,0,0,0-.85-1.62,2.46,2.46,0,0,0-2-.59c-1.63.2-2.45.94-2.45,2.21Z" transform="translate(0)"/><path class="cls-1" d="M46.36,191.85V115.22H64.64v76c0,1.18.82,1.86,2.45,2.06a2.57,2.57,0,0,0,2-.52,1.93,1.93,0,0,0,.85-1.54V171.55L88,180.08l.19,11.77q0,4.71-4.43,8.16a16.52,16.52,0,0,1-10.46,3.46H61.25a16.62,16.62,0,0,1-10.56-3.39A10.12,10.12,0,0,1,46.36,191.85Z" transform="translate(0)"/><path class="cls-1" d="M97.81,115.22a16.73,16.73,0,0,1,10.46,3.39q4.42,3.38,4.43,8.23v76.63h-3.4a16.61,16.61,0,0,1-10.55-3.39,10.13,10.13,0,0,1-4.34-8.23V115.22Z" transform="translate(0)"/><path class="cls-1" d="M118.91,203.47V125.52a9,9,0,0,1,3.87-7.28,14.69,14.69,0,0,1,9.33-3,21.87,21.87,0,0,1,9.23,1.91l10.18,4.71,10.17-4.71a21.91,21.91,0,0,1,9.24-1.91,14.73,14.73,0,0,1,9.33,3,9,9,0,0,1,3.86,7.28v78h-3.2a16.62,16.62,0,0,1-10.56-3.39,10.12,10.12,0,0,1-4.33-8.23V127.43c0,2.55,0,4.07-.1,4.56s-.18.51-.37.07-.51-1.08-.94-1.91a2,2,0,0,0-1.8-1.25,4.74,4.74,0,0,0-2.07.74v73.83H142.47V129.64a27.25,27.25,0,0,1-2.64-1.18c-.63-.3-1.22-.56-1.79-.81s-.85-.32-.85-.22v64.42q0,4.85-4.43,8.23a16.7,16.7,0,0,1-10.45,3.39Z" transform="translate(0)"/><path class="cls-1" d="M192.79,191.85V115.22h27A16.23,16.23,0,0,1,230,118.53a11.1,11.1,0,0,1,4.62,8v32.5c0,2.16-1.2,3.73-3.58,4.71l-20,9.41v30.3h-3.39a16.62,16.62,0,0,1-10.56-3.39A10.12,10.12,0,0,1,192.79,191.85Zm18.28-30.59,5.28-2.5V127.43a2.15,2.15,0,0,0-.85-1.62,2.46,2.46,0,0,0-2-.59c-1.64.2-2.45.94-2.45,2.21Z" transform="translate(0)"/><path class="cls-1" d="M239.15,193.17V115.22h18.28v76c0,1.37.88,2.06,2.64,2.06s2.63-.69,2.63-2.06v-76h3.4a16.73,16.73,0,0,1,10.46,3.39Q281,122,281,126.84v65l-.19.29a10.46,10.46,0,0,1-4.43,8,16.23,16.23,0,0,1-10.27,3.31H252.34a14.69,14.69,0,0,1-9.33-3A9,9,0,0,1,239.15,193.17Z" transform="translate(0)"/><path class="cls-1" d="M285.51,191.85v-20.3l18.28,8.53v11.18c0,1.08.63,1.76,1.88,2.06H307c1.38-.3,2.08-1,2.08-2.06V173.17l-23.56-11v-35.3a10.12,10.12,0,0,1,4.33-8.23,16.62,16.62,0,0,1,10.56-3.39h12.06a16.73,16.73,0,0,1,10.46,3.39q4.43,3.38,4.43,8.23v33.39l-18.28-8.39V127.43a2.06,2.06,0,0,0-.85-1.69,2.61,2.61,0,0,0-2-.52c-1.64.2-2.45.94-2.45,2.21v31.33l23.56,10.88v22.21q0,4.85-4.43,8.23a16.73,16.73,0,0,1-10.46,3.39H300.4q-6.6,0-10.75-3.31A10.23,10.23,0,0,1,285.51,191.85Z" transform="translate(0)"/><path class="cls-1" d="M0,250.72v-29.9q0-3.44,1.81-4.95a6.57,6.57,0,0,1,4.38-1.51h.42l16.2.69v2.14H6.61a3.58,3.58,0,0,0-2.83.92A4,4,0,0,0,3,220.82V231.2l17.72.39v2.19L3,234.18v16.54Z" transform="translate(0)"/><path class="cls-1" d="M33,220v-2.78a.93.93,0,0,1,1.05-1.05H36q1,0,1,1.05V220a.88.88,0,0,1-1,1H34.09a.9.9,0,0,1-.84-.34A1.3,1.3,0,0,1,33,220Zm.42,30.75V224.34h3v26.38Z" transform="translate(0)"/><path class="cls-1" d="M45.89,227.12V225l4.93-.75.78-7.35h2.2v7.35h8.5v2.83H53.8v14.21q0,3.93,1.21,5.22a4.35,4.35,0,0,0,2.41,1.34q4,.84,4.41.84v2H57.58q-6.76,0-6.76-9.39V227.12Z" transform="translate(0)"/><path class="cls-1" d="M78.66,225.66A21.52,21.52,0,0,1,82,224.47a16,16,0,0,1,4.36-.57,8.22,8.22,0,0,1,4.32,1.19,7.89,7.89,0,0,1,3.94,7.25v18.38h-3V232.34a5.49,5.49,0,0,0-1.55-4.1,5.29,5.29,0,0,0-3.85-1.51A19.28,19.28,0,0,0,79,228c-.87.35-2.1.89-3.67,1.62v21.11h-3V224.34h2l1,3.08C76.69,226.66,77.79,226.07,78.66,225.66Z" transform="translate(0)"/><path class="cls-1" d="M108.35,249.65a7,7,0,0,1-2.81-4.17,25.65,25.65,0,0,1-.81-6.93,52.87,52.87,0,0,1,.26-6.18,12.76,12.76,0,0,1,.92-3.61,8.31,8.31,0,0,1,1.49-2.38,5.47,5.47,0,0,1,2.26-1.39,20.56,20.56,0,0,1,6.71-.85q5.09,0,6.92,1a5.41,5.41,0,0,1,2.73,2.73,11.74,11.74,0,0,1,1,4.89,7.65,7.65,0,0,1-.79,3.95q-1.58,2.44-6.4,2.44H107.72c0,4.63.89,7.42,2.67,8.34a7,7,0,0,0,3.51.7,98.64,98.64,0,0,0,12.59-.65v2.09A47.9,47.9,0,0,1,114.17,251,10.53,10.53,0,0,1,108.35,249.65Zm-.63-13.34h12.11a6.28,6.28,0,0,0,3.12-.62,2.68,2.68,0,0,0,1.08-2.55,13,13,0,0,0-.34-3.21,3.33,3.33,0,0,0-1.34-1.94,5.46,5.46,0,0,0-2.26-.84,25.24,25.24,0,0,0-3.38-.17c-1.41,0-2.48,0-3.2.07a9.84,9.84,0,0,0-2.17.4,3.64,3.64,0,0,0-1.68.92,6.06,6.06,0,0,0-1.1,1.64C108,231.2,107.72,233.3,107.72,236.31Z" transform="translate(0)"/><path class="cls-1" d="M136.51,232.84v-2.29a6.52,6.52,0,0,1,1.65-4.82q1.65-1.64,5.58-1.64c1.3,0,3.45.09,6.45.25s5.25.32,6.72.45v2.09H143.74c-1.75,0-2.89.29-3.43.86a4,4,0,0,0-.82,2.81v2.29c0,1.59.39,2.56,1.16,2.93a9,9,0,0,0,3.09.4h7.77a7.09,7.09,0,0,1,5,1.66,5.8,5.8,0,0,1,1.81,4.5v2.43q0,3.93-2.2,5.17a8.24,8.24,0,0,1-4.12,1q-2.28,0-7.44-.3t-6.9-.49v-2h13.85a4.08,4.08,0,0,0,2.51-.5,3.45,3.45,0,0,0,1.31-2.88v-2.43q0-3.33-3.82-3.33h-7.77c-2.62,0-4.48-.42-5.58-1.24S136.51,235.29,136.51,232.84Z" transform="translate(0)"/><path class="cls-1" d="M167.29,232.84v-2.29a6.52,6.52,0,0,1,1.65-4.82q1.65-1.64,5.59-1.64c1.29,0,3.44.09,6.45.25s5.24.32,6.71.45v2.09H174.53c-1.75,0-2.9.29-3.44.86a4,4,0,0,0-.81,2.81v2.29c0,1.59.38,2.56,1.15,2.93a9.09,9.09,0,0,0,3.1.4h7.76a7.13,7.13,0,0,1,5,1.66,5.84,5.84,0,0,1,1.81,4.5v2.43q0,3.93-2.21,5.17a8.2,8.2,0,0,1-4.11,1c-1.52,0-4-.1-7.45-.3s-5.74-.36-6.9-.49v-2h13.85a4.09,4.09,0,0,0,2.52-.5,3.47,3.47,0,0,0,1.31-2.88v-2.43q0-3.33-3.83-3.33h-7.76c-2.63,0-4.49-.42-5.59-1.24S167.29,235.29,167.29,232.84Z" transform="translate(0)"/><path class="cls-1" d="M218.45,240.59a35.35,35.35,0,0,1-.45-3.93c-.07-1.26-.1-2.84-.1-4.74s.07-3.69.23-5.34a25,25,0,0,1,1-5,12,12,0,0,1,2.05-4.07,9.37,9.37,0,0,1,3.48-2.59,11.45,11.45,0,0,1,4.75-1c1.69,0,4,.14,6.76.42s5.13.59,7,.92v2.24l-1-.08-2.36-.17c-1-.07-2-.15-3.06-.25q-4-.25-6.54-.25a10.56,10.56,0,0,0-4.11.67,7,7,0,0,0-2.6,1.86,8,8,0,0,0-1.55,3.18q-1.05,3.48-1,11.06t2,11.1q2,3.53,7.34,3.53a21.06,21.06,0,0,0,4.46-.6c1.78-.4,3.28-.79,4.51-1.19l1.84-.6V234.28h-9.66v-1.89a37,37,0,0,1,9.08-1c1.12,0,2.3,0,3.57.15v19.17h-2.21l-.68-2.53a23.88,23.88,0,0,1-5.8,2.11,24.27,24.27,0,0,1-5.21.67h-1.21a11.85,11.85,0,0,1-2.91-.47,10.31,10.31,0,0,1-3-1.32,7.88,7.88,0,0,1-2.21-2.21,12.58,12.58,0,0,1-1.44-2.86A20.39,20.39,0,0,1,218.45,240.59Z" transform="translate(0)"/><path class="cls-1" d="M269.87,250.72h-3V237.81l-12.43-23.45h3.3l10.6,20,11.69-20h3.25l-13.42,23.45Z" transform="translate(0)"/><path class="cls-1" d="M291.63,250.72l3.15-36.36h4.14L309.46,246l10.28-31.64h4.2l3.4,36.36h-3l-3-31.49-10.28,31.49H308L297.4,219.23l-2.78,31.49Z" transform="translate(0)"/><path class="cls-1" d="M94.4,66.31c2.31-6.87.37-20.66-6.49-27.92-5,12.12-.94,21.13,3.23,25.45C86.35,61.1,77,58.37,63.85,63,73,71.42,87.5,71.3,94.4,66.31Z" transform="translate(0)"/><path class="cls-1" d="M78.35,53.09c2.9-6,3-19.29-2.54-26.93-6.91,11.77-3.35,20.17-.17,24.26-3.94-3-12.11-6.76-25.71-4.39C58.05,56.18,72.18,56.61,78.35,53.09Z" transform="translate(0)"/><path class="cls-1" d="M64.22,37.84C68,32.46,69.7,19.78,66,12.59c-8.32,9.68-6,18.71-3.59,22.94C59,32.11,51,27.11,38.61,26.75,44.12,37.53,57.6,40.51,64.22,37.84Z" transform="translate(0)"/><path class="cls-1" d="M133.48,67.11c-1.26,10.28,2.26,21.66,10.64,26.91-9.67-2.35-21.36,2.16-28.9,8.32,10.77,4.73,27,2.91,34.59-5.93C150.41,85.7,142.6,73.16,133.48,67.11Z" transform="translate(0)"/><path class="cls-1" d="M116.87,59.85C115,69.57,116.8,79,123.48,84.37c-8.47-2.53-17.17.27-25.64,5.92,11.2,6,25.88,4.94,32.95-2.31C132.07,78.06,124.85,65.68,116.87,59.85Z" transform="translate(0)"/><path class="cls-1" d="M101.69,49.2c-3.87,13.29,1.13,21.86,5.91,26-6.56-2.86-17-3-28,2.59,10.83,7.35,25.36,6,32.18,0C113.74,68.78,108.73,55.09,101.69,49.2Z" transform="translate(0)"/><path class="cls-1" d="M55.1,23.45C59.5,14.75,51.42,3.66,43.77,0,38.9,7.82,44.4,23,55.1,23.45Z" transform="translate(0)"/><path class="cls-1" d="M184.61,94c8.39-5.25,11.9-16.63,10.65-26.91-9.13,6-16.94,18.59-16.34,29.3,7.61,8.84,23.83,10.66,34.59,5.93C206,96.18,194.28,91.67,184.61,94Z" transform="translate(0)"/><path class="cls-1" d="M205.25,84.37c6.68-5.36,8.5-14.8,6.61-24.52-8,5.83-15.19,18.21-13.92,28.13,7.07,7.25,21.75,8.35,32.95,2.31C222.43,84.64,213.72,81.84,205.25,84.37Z" transform="translate(0)"/><path class="cls-1" d="M221.13,75.2c4.78-4.14,9.79-12.71,5.91-26-7,5.89-12,19.58-10,28.6,6.83,6,21.36,7.34,32.18,0C238.14,72.17,227.7,72.34,221.13,75.2Z" transform="translate(0)"/><path class="cls-1" d="M237.6,63.84c4.17-4.32,8.28-13.33,3.22-25.45-6.85,7.26-8.8,21-6.49,27.92,6.9,5,21.37,5.11,30.55-3.35C251.7,58.37,242.39,61.1,237.6,63.84Z" transform="translate(0)"/><path class="cls-1" d="M253.1,50.42c3.17-4.09,6.74-12.49-.18-24.26-5.5,7.64-5.43,21-2.54,26.93,6.18,3.52,20.3,3.09,28.42-7.06C265.21,43.66,257,47.45,253.1,50.42Z" transform="translate(0)"/><path class="cls-1" d="M266.28,35.53c2.4-4.23,4.74-13.26-3.58-22.94-3.66,7.19-2,19.87,1.81,25.25,6.62,2.67,20.11-.31,25.61-11.09C277.76,27.11,269.72,32.11,266.28,35.53Z" transform="translate(0)"/><path class="cls-1" d="M285,0c-7.64,3.66-15.73,14.75-11.32,23.45C284.33,23,289.84,7.82,285,0Z" transform="translate(0)"/><path class="cls-1" d="M164.08,94.8a6.44,6.44,0,1,0,6.43,6.43A6.43,6.43,0,0,0,164.08,94.8Z" transform="translate(0)"/><polygon class="cls-1" points="272.61 60.8 249.82 88.41 262.96 88.41 245.43 111.2 293.65 80.52 276.99 80.52 299.35 60.8 272.61 60.8"/><polygon class="cls-1" points="56.13 60.8 78.92 88.41 65.77 88.41 83.3 111.2 35.09 80.52 51.74 80.52 29.39 60.8 56.13 60.8"/></g></g></svg>